# xmcd
#
# Track frame offsets: 
#        150
#        22402
#        39363
#        62050
#        78258
#        92054
#        107476
#        128067
#        147152
#        160403
#        167998
#        185612
#        196817
#        213123
#        233126
#        253612
#        272626
#        285053
#        311507
#
# Disc length: 4481 seconds
#
# Revision: 4
# Processed by: cddbd v1.5.2PL0 Copyright (c) Steve Scherf et al.
# Submitted via: ExactAudioCopy v0.95b4
#
DISCID=02117f13
DTITLE=Various Artist - Rough Trade Shops: Country 01 - Disc 1
DYEAR=2003
DGENRE=Alt.Country
TTITLE0=Giant Sand - Wearing The Robes Of Bible Black
TTITLE1=The Replacements - Take Me Down To The Hospital
TTITLE2=Violent Femmes - Country Death Song
TTITLE3=Lincoln '65 - Jellyfish
TTITLE4=Wannabe Texans - I Cut Myself
TTITLE5=Meat Puppets - Lost
TTITLE6=The Geraldine Fibbers - Fancy
TTITLE7=The Broken Family Band - The Devil In The Details
TTITLE8=American Music Club - Gary's Song
TTITLE9=Boiled In Lead - Tapedecks All Over Hell
TTITLE10=Rainer - Life Is Fine
TTITLE11=The Handsome Family - When The Helicopter Comes
TTITLE12=Calexico - The Crooked Road And The Briar
TTITLE13=Freakwater - South Of Cincinnati
TTITLE14=Richard Buckner - Lil Wallet Picture
TTITLE15=Lucinda Williams - The Night's Too Long
TTITLE16=The Gun Club - Ghost On The Highway
TTITLE17=Songs:Ohia - Come Back To Your Man
TTITLE18=The Dream Syndicate - Blind Willie McTell
EXTD=
EXTT0=
EXTT1=
EXTT2=
EXTT3=
EXTT4=
EXTT5=
EXTT6=
EXTT7=
EXTT8=
EXTT9=
EXTT10=
EXTT11=
EXTT12=
EXTT13=
EXTT14=
EXTT15=
EXTT16=
EXTT17=
EXTT18=
PLAYORDER=
